<svg width="22" height="22" viewBox="0 0 22 22" fill="none" xmlns="http://www.w3.org/2000/svg">
<g clip-path="url(#clip0_1_3367)">
<path d="M17.3286 8.12789C17.0289 8.12789 16.7859 8.37089 16.7859 8.67062V18.5816C16.7859 19.6289 15.9336 20.4812 14.8863 20.4812H2.98514C1.93781 20.4812 1.08552 19.6289 1.08552 18.5816V6.68037C1.08552 5.63303 1.93781 4.78079 2.98514 4.78079H14.8863C15.186 4.78079 15.429 4.53778 15.429 4.23805C15.429 3.93832 15.186 3.69531 14.8863 3.69531H2.98514C1.33911 3.69531 0 5.03437 0 6.68037V18.5816C0 20.2275 1.33911 21.5666 2.98514 21.5666H14.8863C16.5323 21.5666 17.8714 20.2275 17.8714 18.5816V8.67067C17.8714 8.37094 17.6284 8.12789 17.3286 8.12789Z" fill="black"/>
<path d="M21.5084 0.924224C20.8541 0.269917 19.7895 0.270184 19.1358 0.924224L9.83914 10.2211C9.8267 10.2336 9.6865 10.3793 9.65018 10.461L8.36277 13.3533C8.27134 13.5586 8.31583 13.799 8.47483 13.9578C8.57871 14.0617 8.71758 14.1168 8.85884 14.1168C8.93329 14.1168 9.00828 14.1014 9.07931 14.0698L11.9717 12.7824C12.053 12.7462 12.199 12.6059 12.2115 12.5935L21.5084 3.29689C21.8254 2.97991 22 2.55857 22 2.11042C22 1.66232 21.8254 1.24089 21.5084 0.924224ZM20.7409 2.52914L11.444 11.826C11.4425 11.8276 11.4416 11.8295 11.4401 11.8308L9.92924 12.5034L10.6018 10.9926C10.6032 10.991 10.605 10.9901 10.6066 10.9886L19.9032 1.69175C20.1272 1.46776 20.5175 1.46803 20.741 1.69197C20.8529 1.80354 20.9145 1.95222 20.9145 2.11042C20.9145 2.26862 20.8528 2.41726 20.7409 2.52914Z" fill="black"/>
</g>
<defs>
<clipPath id="clip0_1_3367">
<rect width="22" height="22" fill="white"/>
</clipPath>
</defs>
</svg>
